<svg width="72" height="72" viewBox="0 0 72 72" fill="none" xmlns="http://www.w3.org/2000/svg">
<path fill-rule="evenodd" clip-rule="evenodd" d="M2.455 2.455L0 4.909V36V67.091L2.455 69.545L4.909 72H36H67.091L69.545 69.545L72 67.091V36V4.909L69.545 2.455L67.091 0H36H4.909L2.455 2.455ZM60.171 19.655C61.177 20.565 62 21.808 62 22.416C62 23.024 54.349 31.163 44.998 40.502L27.996 57.482L18.754 48.24C9.102 38.588 8.669 37.504 13.302 34.581C14.67 33.719 16.148 34.696 21.498 39.998L28.025 46.467L42.258 32.233C50.086 24.405 56.908 18 57.417 18C57.926 18 59.165 18.745 60.171 19.655Z" fill="black"/>
</svg>
